<svg width="40" height="40" viewBox="0 0 40 40" fill="none" xmlns="http://www.w3.org/2000/svg">
<g clip-path="url(#clip0_244_386)">
<path d="M17.9999 26.6667C18.3681 26.6667 18.6666 26.3682 18.6666 26C18.6666 25.6319 18.3681 25.3334 17.9999 25.3334C17.6317 25.3334 17.3333 25.6319 17.3333 26C17.3333 26.3682 17.6317 26.6667 17.9999 26.6667Z" stroke="#262626" stroke-width="2" stroke-linecap="round" stroke-linejoin="round"/>
<path d="M25.3334 26.6667C25.7016 26.6667 26.0001 26.3682 26.0001 26C26.0001 25.6319 25.7016 25.3334 25.3334 25.3334C24.9652 25.3334 24.6667 25.6319 24.6667 26C24.6667 26.3682 24.9652 26.6667 25.3334 26.6667Z" stroke="#262626" stroke-width="2" stroke-linecap="round" stroke-linejoin="round"/>
<path d="M12.6667 12.6666H15.3334L17.1201 21.5933C17.181 21.9002 17.348 22.1759 17.5918 22.3722C17.8355 22.5684 18.1405 22.6726 18.4534 22.6666H24.9334C25.2463 22.6726 25.5513 22.5684 25.7951 22.3722C26.0388 22.1759 26.2058 21.9002 26.2667 21.5933L27.3334 16H16.0001" stroke="#262626" stroke-width="2" stroke-linecap="round" stroke-linejoin="round"/>
</g>
<defs>
<clipPath id="clip0_244_386">
<rect width="16" height="16" fill="white" transform="translate(12 12)"/>
</clipPath>
</defs>
</svg>
